<?xml version="1.0" encoding="utf-8"?>
<!-- Generator: Adobe Illustrator 19.0.0, SVG Export Plug-In . SVG Version: 6.00 Build 0)  -->
<svg version="1.1" id="Layer_1" xmlns="http://www.w3.org/2000/svg" xmlns:xlink="http://www.w3.org/1999/xlink" x="0px" y="0px"
	 viewBox="0 0 500 500" style="enable-background:new 0 0 500 500;" xml:space="preserve">
<style type="text/css">
	.st0{fill:#FFFFFF;}
	.st1{fill:#CE1126;}
	.st2{fill:#C09300;}
</style>
<g id="XMLID_16_">
	<rect id="XMLID_145_" x="67.5" y="128.3" width="365" height="243.3"/>
	<rect id="XMLID_146_" x="67.5" y="128.3" class="st0" width="365" height="162.2"/>
	<rect id="XMLID_147_" x="67.5" y="128.3" class="st1" width="365" height="81.1"/>
	<path id="XMLID_148_" class="st0" d="M250.3,251l27.8,25.8l-2-46.8c-0.3-7.1-6.5-5.5-10.9-2.9c-4.5,2.9-9.7,2.9-15.2,1
		c-5.5,1.9-10.6,1.9-15.2-1c-4.5-2.6-10.6-4.2-10.9,2.9l-2,46.8L250.3,251L250.3,251z"/>
	<path id="XMLID_149_" class="st2" d="M250.3,251l-0.2,0.2l27.8,25.8c0.1,0.1,0.2,0.1,0.3,0c0.1,0,0.2-0.1,0.1-0.2l-2-46.8v0
		c-0.1-1.9-0.6-3.3-1.4-4.1c-0.8-0.9-2-1.2-3.2-1.2c-2.1,0-4.6,1-6.7,2.2l0,0c-2.5,1.6-5.1,2.3-7.9,2.3c-2.3,0-4.6-0.5-7.1-1.3h-0.2
		c-2.4,0.9-4.8,1.3-7.1,1.3c-2.8,0-5.4-0.7-7.9-2.3l0,0c-2.1-1.2-4.6-2.2-6.7-2.2c-1.2,0-2.4,0.3-3.2,1.2c-0.8,0.9-1.3,2.2-1.4,4.1
		v0l-2,46.8c0,0.1,0.1,0.2,0.1,0.2c0.1,0,0.2,0,0.3,0l28.4-25.8c0.1-0.1,0.1-0.2,0.1-0.3c0-0.1-0.1-0.2-0.2-0.2h0
		c-0.1,0-0.2,0.1-0.2,0.2c0,0.1,0,0.2,0.1,0.3L250.3,251v0.3h0L250.3,251l-0.2-0.2l-28,25.4l2-46.2v0c0.1-1.9,0.6-3.1,1.3-3.8
		c0.7-0.7,1.7-1,2.8-1c2,0,4.4,1,6.5,2.1l0.1-0.2l-0.1,0.2c2.5,1.6,5.3,2.4,8.2,2.4c2.3,0,4.8-0.5,7.2-1.4L250,228l-0.1,0.2
		c2.5,0.9,4.9,1.4,7.2,1.4c2.9,0,5.6-0.7,8.2-2.4l-0.1-0.2l0.1,0.2c2.1-1.2,4.5-2.2,6.5-2.1c1.1,0,2.1,0.3,2.8,1
		c0.7,0.7,1.2,1.9,1.3,3.8l0,0l2,46.2l-27.3-25.4L250.3,251v0.3V251z"/>
	<path id="XMLID_150_" class="st2" d="M227.1,228.3l-1.9,45.6l-3.3,2.9l2-46.8C224.8,229.3,226.4,228.3,227.1,228.3L227.1,228.3z"/>
	<path id="XMLID_151_" class="st2" d="M231,231.6l-1.6,38.1l-3.3,3.3l2-44C228.7,229.6,230.6,231.2,231,231.6L231,231.6z"/>
	<path id="XMLID_152_" class="st2" d="M234.5,234.5l-1.3,31.8l-2.6,2.6l1.6-36.3C232.9,233.2,234.2,234.1,234.5,234.5L234.5,234.5z"
		/>
	<path id="XMLID_153_" class="st2" d="M238.4,236.1l-1.3,27.1l-2.6,2.1l1.3-30.2C236.4,235.4,237.7,236.1,238.4,236.1L238.4,236.1z"
		/>
	<path id="XMLID_154_" class="st2" d="M241.9,236.1l-0.9,22.6l-2.6,2.6l1-24.8C240,236.4,241.6,236.4,241.9,236.1L241.9,236.1z"/>
	<path id="XMLID_155_" class="st2" d="M272.9,228.3l1.9,45.6l3.3,2.9l-2-46.8C275.2,229.3,273.6,228.3,272.9,228.3L272.9,228.3z"/>
	<path id="XMLID_156_" class="st2" d="M269,231.6l1.6,38.1l3.3,3.3l-2-44C271.3,229.6,269.4,231.2,269,231.6L269,231.6z"/>
	<path id="XMLID_157_" class="st2" d="M265.5,234.5l1.3,31.8l2.6,2.6l-1.6-36.3C267.1,233.2,265.8,234.1,265.5,234.5L265.5,234.5z"
		/>
	<path id="XMLID_158_" class="st2" d="M261.6,236.1l1.3,27.1l2.6,2.1l-1.3-30.2C263.6,235.4,262.3,236.1,261.6,236.1L261.6,236.1z"
		/>
	<path id="XMLID_159_" class="st2" d="M258.1,236.1l0.9,22.6l2.6,2.6l-1-24.8C260,236.4,258.4,236.4,258.1,236.1L258.1,236.1z"/>
	<polygon id="XMLID_160_" class="st2" points="251.3,256.1 255.2,273.9 253.9,275.1 252.6,274.1 250.4,258.3 251.3,274.1 250,275.8 
		248.7,274.1 249.7,258.3 247.4,274.1 246.1,275.1 244.8,273.9 248.7,256.1 	"/>
	<polygon id="XMLID_161_" class="st2" points="251.3,256.1 251.1,256.2 254.9,273.8 253.9,274.8 252.8,274 250.6,258.3 250.1,258.3 
		251.1,274.1 250,275.4 248.9,274.1 249.9,258.3 249.4,258.3 247.2,274 246.1,274.8 245.1,273.8 248.9,256.3 251.3,256.3 
		251.3,255.9 251,255.9 251.1,256.2 251.3,256.1 251.3,256.3 251.3,255.9 248.5,255.9 244.6,273.9 246.1,275.4 247.6,274.3 
		249.1,263.7 248.5,274.2 250,276.1 251.5,274.2 250.9,263.7 252.4,274.3 253.9,275.4 255.4,273.9 251.5,256.1 251.3,256.1 
		251.3,256.3 	"/>
	<polygon id="XMLID_162_" class="st0" points="241.3,248.3 233.5,275.8 244.2,277.4 248.7,256.7 241.3,248.3 	"/>
	<path id="XMLID_163_" class="st2" d="M241.3,248.3l-0.2-0.1l-7.7,27.5l0,0.2l0.2,0.1l10.6,1.6c0.1,0,0.2-0.1,0.3-0.2l4.5-20.7
		l-0.1-0.2l-7.4-8.4c-0.1-0.1-0.2-0.1-0.3-0.1c-0.1,0-0.2,0.1-0.2,0.2v0H241.3l-0.2-0.1L241.3,248.3h0.2v0L241.3,248.3l-0.2,0.2
		l7.4,8.3l-4.5,20.3l-10.2-1.6l7.7-27.2l0-0.1H241.3z"/>
	<polygon id="XMLID_164_" class="st2" points="238.5,257.8 239.4,260 239.6,260.2 239.8,260.1 244.9,255.3 244.5,255 239.7,259.5 
		239,257.6 	"/>
	<path id="XMLID_165_" class="st2" d="M241.9,252l1.1,9.9c0,0.1,0.1,0.2,0.2,0.2c0.1,0,0.2,0,0.3-0.1l3.2-4.2l-0.4-0.3l-2.8,3.7
		l-1-9.2L241.9,252L241.9,252z"/>
	<polyline id="XMLID_166_" class="st2" points="244.9,259.4 246.7,265.4 247.2,265.3 245.4,259.2 	"/>
	<path id="XMLID_169_" class="st2" d="M247.4,263l-3.5,5.4l0.4,0.3l3.5-5.4L247.4,263z M245.4,273.8l-1.1-5.3l-1-5.4
		c0-0.1-0.1-0.2-0.2-0.2c-0.1,0-0.2,0-0.3,0.1l-2.1,2.8l-0.9-3.2l-0.2-0.2l-0.2,0.1l-3.3,3.4l-0.1,0.2l1.7,6.2
		c0,0.1,0.1,0.2,0.2,0.2c0.1,0,0.2,0,0.3-0.1l2-3.3l1.1,3.4c0,0.1,0.1,0.2,0.2,0.2c0.1,0,0.2,0,0.2-0.1l2.4-3.7l-0.4-0.3l-2.1,3.3
		l-1.1-3.4c0-0.1-0.1-0.2-0.2-0.2c-0.1,0-0.2,0-0.2,0.1l-2,3.3l-1.5-5.5l2.9-3l0.9,3.3c0,0.1,0.1,0.2,0.2,0.2c0.1,0,0.2,0,0.3-0.1
		l2-2.7l0.9,4.9l0,0l1.1,5.4L245.4,273.8z"/>
	<path id="XMLID_170_" class="st2" d="M236,275.3l1.8-2.6l1.2,4.1c0,0.1,0.1,0.2,0.2,0.2c0.1,0,0.2,0,0.3-0.1l1.6-2.8l1.1,3.4
		l0.5-0.2l-1.3-3.9c0-0.1-0.1-0.2-0.2-0.2c-0.1,0-0.2,0-0.2,0.1l-1.6,2.8l-1.2-4.1c0-0.1-0.1-0.2-0.2-0.2c-0.1,0-0.2,0-0.3,0.1
		l-2.1,3L236,275.3z"/>
	<polygon id="XMLID_171_" class="st0" points="258.7,248.3 266.5,275.8 255.8,277.4 251.3,256.7 258.7,248.3 	"/>
	<path id="XMLID_172_" class="st2" d="M258.7,248.3l-0.2,0.1l7.7,27.2l-10.2,1.6l-4.5-20.3l7.4-8.3L258.7,248.3l-0.2,0v0l0,0.1
		L258.7,248.3h0.2v0c0-0.1-0.1-0.2-0.2-0.2c-0.1,0-0.2,0-0.3,0.1l-7.4,8.4l-0.1,0.2l4.5,20.7c0,0.1,0.1,0.2,0.3,0.2l10.6-1.6
		l0.2-0.1l0-0.2l-7.7-27.5L258.7,248.3h0.2H258.7z"/>
	<polygon id="XMLID_173_" class="st2" points="261,257.6 260.3,259.5 255.5,255 255.1,255.3 260.2,260.1 260.4,260.2 260.6,260 
		261.5,257.8 	"/>
	<path id="XMLID_174_" class="st2" d="M257.5,252l-1,9.2l-2.8-3.7l-0.4,0.3l3.2,4.2c0.1,0.1,0.2,0.1,0.3,0.1c0.1,0,0.2-0.1,0.2-0.2
		l1.1-9.9L257.5,252z"/>
	<polyline id="XMLID_175_" class="st2" points="254.6,259.2 252.8,265.3 253.3,265.4 255.1,259.4 	"/>
	<path id="XMLID_178_" class="st2" d="M252.2,263.3l3.5,5.4l0.4-0.3l-3.5-5.4L252.2,263.3z M255.1,273.9l1.1-5.4l0,0l0.9-4.9l2,2.7
		c0.1,0.1,0.2,0.1,0.3,0.1c0.1,0,0.2-0.1,0.2-0.2l0.9-3.3l2.9,3l-1.5,5.5l-2-3.3c-0.1-0.1-0.2-0.1-0.2-0.1c-0.1,0-0.2,0.1-0.2,0.2
		l-1.1,3.4l-2.1-3.3l-0.4,0.3l2.4,3.7c0.1,0.1,0.2,0.1,0.2,0.1c0.1,0,0.2-0.1,0.2-0.2l1.1-3.4l2,3.3c0.1,0.1,0.2,0.1,0.3,0.1
		c0.1,0,0.2-0.1,0.2-0.2l1.7-6.2l-0.1-0.2l-3.3-3.4l-0.2-0.1l-0.2,0.2l-0.9,3.2l-2.1-2.8c-0.1-0.1-0.2-0.1-0.3-0.1
		c-0.1,0-0.2,0.1-0.2,0.2l-1,5.4l-1.1,5.3L255.1,273.9z"/>
	<path id="XMLID_179_" class="st2" d="M264.4,275l-2.1-3c-0.1-0.1-0.2-0.1-0.3-0.1c-0.1,0-0.2,0.1-0.2,0.2l-1.2,4.1l-1.6-2.8
		c-0.1-0.1-0.1-0.1-0.2-0.1c-0.1,0-0.2,0.1-0.2,0.2l-1.3,3.9l0.5,0.2l1.1-3.4l1.6,2.8c0.1,0.1,0.2,0.1,0.3,0.1
		c0.1,0,0.2-0.1,0.2-0.2l1.2-4.1l1.8,2.6L264.4,275L264.4,275z"/>
	<path id="XMLID_180_" class="st0" d="M250,288c8.1,0,15.8-0.6,20.4-1.9c1.9-0.3,1.9-1.3,1.9-2.6c1.9-0.6,0.9-2.9,2.3-2.9
		c-1.3,0.3-1.6-2.3-3.3-1.9c0-2.3-2.3-2.6-4.2-1.9c-3.8,1.3-10.6,1.6-17.1,1.6c-6.5-0.3-13.2-0.3-17.1-1.6c-1.9-0.6-4.2-0.3-4.2,1.9
		c-1.6-0.3-1.9,2.3-3.3,1.9c1.3,0,0.3,2.3,2.3,2.9c0,1.3,0,2.3,2,2.6C234.2,287.4,241.9,288,250,288z"/>
	<path id="XMLID_181_" class="st2" d="M250,288v0.5c4.1,0,8-0.2,11.6-0.5c3.5-0.3,6.6-0.8,8.9-1.5l-0.1-0.5l0.1,0.5
		c0.5-0.1,0.9-0.2,1.3-0.4c0.3-0.2,0.5-0.3,0.6-0.6c0.2-0.3,0.3-0.7,0.4-1c0-0.4,0-0.7,0-1.1h-0.5l0.2,0.5c0.6-0.2,1-0.5,1.2-0.9
		c0.4-0.6,0.4-1.2,0.6-1.6c0.1-0.2,0.1-0.3,0.2-0.3l0,0l0.1,0v-0.5l-0.1-0.5l-0.1,0l-0.2,0c-0.1,0-0.2-0.2-0.4-0.3
		c-0.2-0.3-0.5-0.6-0.8-1c-0.2-0.2-0.4-0.3-0.6-0.4c-0.2-0.1-0.5-0.2-0.8-0.2c-0.1,0-0.3,0-0.4,0l0.1,0.5h0.5c0-0.5-0.1-0.9-0.2-1.2
		c-0.2-0.5-0.7-0.9-1.1-1.2c-0.5-0.2-1-0.3-1.6-0.3c-0.6,0-1.3,0.1-1.9,0.3c-1.9,0.6-4.5,1-7.5,1.2c-3,0.2-6.3,0.3-9.5,0.3v0.5
		l0-0.5c-3.2-0.1-6.5-0.2-9.5-0.4c-3-0.2-5.6-0.5-7.5-1.1l0,0c-0.6-0.2-1.3-0.3-1.9-0.3c-0.7,0-1.5,0.2-2,0.6
		c-0.3,0.2-0.5,0.5-0.7,0.9c-0.2,0.4-0.2,0.8-0.2,1.2h0.5l0.1-0.5c-0.1,0-0.3,0-0.4,0c-0.4,0-0.8,0.2-1.1,0.4
		c-0.4,0.3-0.7,0.8-1,1.1c-0.1,0.2-0.3,0.3-0.4,0.4c-0.1,0.1-0.2,0.1-0.3,0.1l-0.1,0l-0.1,0.5v0.5c0.1,0,0.1,0,0.2,0l0.1,0.1
		c0.1,0.1,0.1,0.2,0.2,0.5c0.1,0.3,0.2,0.8,0.4,1.2c0.1,0.2,0.3,0.4,0.5,0.6c0.2,0.2,0.5,0.3,0.8,0.5l0.2-0.5h-0.5c0,0.3,0,0.6,0,1
		c0,0.2,0.1,0.5,0.2,0.7c0.1,0.3,0.4,0.7,0.7,0.9c0.4,0.2,0.8,0.4,1.4,0.5l0.1-0.5l-0.1,0.5c2.3,0.7,5.4,1.1,8.9,1.5
		c3.5,0.3,7.5,0.5,11.5,0.5V288v-0.5c-4,0-8-0.2-11.5-0.5c-3.5-0.3-6.5-0.8-8.7-1.4l0,0c-0.5-0.1-0.8-0.2-1-0.3
		c-0.2-0.1-0.3-0.2-0.3-0.3c-0.1-0.2-0.2-0.3-0.2-0.6c0-0.3,0-0.6,0-0.9c0-0.2-0.1-0.4-0.3-0.5c-0.4-0.1-0.6-0.3-0.7-0.5
		c-0.2-0.3-0.3-0.8-0.4-1.3c-0.1-0.2-0.2-0.5-0.4-0.7c-0.1-0.1-0.2-0.2-0.4-0.3c-0.2-0.1-0.3-0.1-0.5-0.1c-0.2,0-0.4,0.2-0.5,0.4
		c0,0.2,0.1,0.5,0.4,0.5c0.1,0,0.2,0,0.4,0c0.2,0,0.4-0.1,0.6-0.1c0.3-0.1,0.5-0.4,0.7-0.6c0.3-0.3,0.5-0.7,0.8-0.9
		c0.1-0.1,0.2-0.2,0.3-0.3c0.1-0.1,0.2-0.1,0.3-0.1l0.2,0c0.1,0,0.3,0,0.4-0.1c0.1-0.1,0.2-0.2,0.2-0.4c0-0.3,0.1-0.6,0.2-0.8
		c0.1-0.3,0.4-0.5,0.7-0.7c0.3-0.2,0.7-0.2,1.2-0.2c0.5,0,1,0.1,1.6,0.3l0,0c2,0.7,4.7,1,7.7,1.2c3,0.2,6.3,0.3,9.5,0.4l0,0
		c3.2,0,6.6-0.1,9.6-0.3c3-0.2,5.7-0.6,7.7-1.3c0.5-0.2,1.1-0.3,1.6-0.3c0.6,0,1.1,0.1,1.4,0.4c0.2,0.1,0.3,0.3,0.4,0.5
		c0.1,0.2,0.2,0.5,0.2,0.8c0,0.1,0.1,0.3,0.2,0.4c0.1,0.1,0.3,0.1,0.4,0.1l0.2,0c0.2,0,0.3,0.1,0.5,0.2c0.3,0.2,0.5,0.6,0.8,1
		c0.2,0.2,0.3,0.4,0.5,0.5c0.2,0.2,0.5,0.3,0.8,0.3c0.1,0,0.2,0,0.4,0c0.2-0.1,0.4-0.3,0.4-0.5c0-0.2-0.2-0.4-0.5-0.4
		c-0.2,0-0.5,0.1-0.7,0.2c-0.2,0.1-0.3,0.2-0.4,0.4c-0.2,0.2-0.2,0.5-0.3,0.7c-0.1,0.4-0.2,0.7-0.3,1c-0.1,0.1-0.2,0.3-0.3,0.4
		c-0.1,0.1-0.3,0.2-0.5,0.3c-0.2,0.1-0.3,0.2-0.3,0.5c0,0.3,0,0.6,0,0.8c0,0.2-0.1,0.3-0.1,0.5c-0.1,0.2-0.2,0.3-0.4,0.5
		c-0.2,0.1-0.5,0.3-1,0.4l0,0c-2.2,0.6-5.3,1.1-8.8,1.4c-3.5,0.3-7.4,0.5-11.5,0.5V288z"/>
	<path id="XMLID_182_" class="st0" d="M239,275.8c2.6,0.3,5.5,0.6,7.8,0.3c1.3,0,2.2,2.2-0.3,2.6c-2.3,0.3-5.8,0-7.7-0.3
		c-1.6-0.3-5.2-0.9-7.4-1.6c-2.3-1-0.6-2.9,0.6-2.6C233.9,274.8,236.4,275.4,239,275.8L239,275.8z"/>
	<path id="XMLID_183_" class="st2" d="M239,275.8l0,0.3c1.9,0.2,3.9,0.5,5.7,0.5c0.7,0,1.5,0,2.1-0.1l0-0.3v0.3
		c0.3,0,0.5,0.1,0.7,0.3c0.2,0.2,0.3,0.5,0.3,0.7c0,0.2-0.1,0.4-0.3,0.6c-0.2,0.2-0.6,0.4-1.1,0.4l0,0c-0.6,0.1-1.4,0.1-2.2,0.1
		c-2,0-4.1-0.2-5.5-0.5l0,0c-1.6-0.3-5.2-0.9-7.4-1.6l-0.1,0.2l0.1-0.2c-0.4-0.2-0.6-0.4-0.8-0.5c-0.1-0.2-0.2-0.4-0.2-0.5
		c0-0.3,0.1-0.5,0.4-0.8c0.2-0.2,0.6-0.3,0.9-0.3l0.2,0l0.1-0.3l-0.1,0.2c2,0.6,4.6,1.3,7.1,1.6L239,275.8l0-0.3h0
		c-0.1,0-0.3,0.1-0.3,0.2c0,0.1,0.1,0.3,0.2,0.3L239,275.8l0,0.3h0c0.1,0,0.3-0.1,0.3-0.2c0-0.1-0.1-0.3-0.2-0.3
		c-2.5-0.3-5.1-1-7.1-1.6l0,0c-0.1,0-0.2,0-0.3,0c-0.4,0-0.9,0.2-1.2,0.5c-0.3,0.3-0.6,0.7-0.6,1.1c0,0.3,0.1,0.6,0.3,0.8
		c0.2,0.3,0.5,0.5,1,0.7l0,0c2.3,0.6,5.8,1.3,7.5,1.6l0,0c1.4,0.3,3.6,0.5,5.6,0.5c0.8,0,1.6,0,2.2-0.1l0,0c0.6-0.1,1.1-0.3,1.4-0.6
		c0.3-0.3,0.5-0.6,0.5-1c0-0.4-0.2-0.8-0.5-1.1c-0.3-0.3-0.7-0.5-1.1-0.5l0,0c-0.6,0.1-1.3,0.1-2.1,0.1c-1.8,0-3.8-0.2-5.7-0.5
		L239,275.8l0,0.3L239,275.8z"/>
	<path id="XMLID_184_" class="st0" d="M261,275.8c-2.6,0.3-5.5,0.6-7.7,0.3c-1.3,0-2.3,2.2,0.3,2.6c2.3,0.3,5.8,0,7.7-0.3
		c1.6-0.3,5.2-0.9,7.4-1.6c2.3-1,0.6-2.9-0.6-2.6C266.1,274.8,263.6,275.4,261,275.8L261,275.8z"/>
	<path id="XMLID_185_" class="st2" d="M261,275.8l0-0.3c-1.9,0.2-3.9,0.5-5.7,0.5c-0.7,0-1.4,0-2-0.1l0,0c-0.4,0-0.8,0.2-1.1,0.5
		c-0.3,0.3-0.5,0.7-0.5,1.1c0,0.3,0.1,0.7,0.5,1c0.3,0.3,0.8,0.5,1.4,0.6l0,0c0.7,0.1,1.4,0.1,2.2,0.1c2,0,4.2-0.2,5.6-0.5l0,0
		c1.6-0.3,5.2-0.9,7.5-1.6l0,0c0.4-0.2,0.8-0.4,1-0.7c0.2-0.3,0.3-0.6,0.3-0.8c0-0.5-0.2-0.8-0.6-1.1c-0.3-0.3-0.8-0.5-1.2-0.5
		c-0.1,0-0.2,0-0.3,0l0,0c-2,0.6-4.5,1.3-7.1,1.6L261,275.8l0.1,0.2h0c0.1-0.1,0.1-0.2,0.1-0.3c0-0.1-0.2-0.2-0.3-0.2L261,275.8
		l-0.1-0.2l0,0c-0.1,0.1-0.1,0.2-0.1,0.3c0,0.1,0.2,0.2,0.3,0.2c2.6-0.4,5.1-1,7.1-1.6l-0.1-0.2l0.1,0.3l0.2,0
		c0.3,0,0.6,0.1,0.9,0.3c0.2,0.2,0.4,0.5,0.4,0.7c0,0.2-0.1,0.3-0.2,0.5c-0.1,0.2-0.4,0.4-0.8,0.5l0.1,0.2l-0.1-0.2
		c-2.2,0.6-5.8,1.3-7.4,1.6l0,0c-1.3,0.2-3.5,0.5-5.5,0.5c-0.8,0-1.5,0-2.2-0.1l0,0c-0.6-0.1-0.9-0.2-1.1-0.4
		c-0.2-0.2-0.3-0.4-0.3-0.6c0-0.2,0.1-0.5,0.3-0.7c0.2-0.2,0.5-0.3,0.8-0.3v-0.3l0,0.3c0.6,0.1,1.4,0.1,2.1,0.1
		c1.8,0,3.8-0.2,5.7-0.5L261,275.8l-0.1-0.2L261,275.8z"/>
	<path id="XMLID_186_" class="st0" d="M231,274.5c-2-0.3-2.9,1.9-2.3,3.2c0.3-0.6,1.6-0.6,1.9-1.3C231,275.4,230.3,275.4,231,274.5z
		"/>
	<path id="XMLID_187_" class="st2" d="M231,274.5l0-0.3c-0.2,0-0.3,0-0.4,0c-0.7,0-1.3,0.4-1.7,0.8c-0.4,0.5-0.6,1.1-0.6,1.7
		c0,0.4,0.1,0.7,0.2,1c0,0.1,0.1,0.1,0.2,0.1c0.1,0,0.2-0.1,0.2-0.2c0-0.1,0.1-0.2,0.3-0.3c0.2-0.1,0.5-0.2,0.9-0.4
		c0.2-0.1,0.3-0.1,0.4-0.2c0.1-0.1,0.3-0.2,0.3-0.4l0,0c0.1-0.3,0.1-0.5,0.1-0.7c0-0.1,0-0.3,0-0.4c0-0.1,0-0.2,0-0.2
		c0-0.1,0-0.1,0-0.2c0-0.1,0.1-0.2,0.2-0.4L231,274.5v0.3c0.1,0,0.2-0.1,0.3-0.2c0-0.1-0.1-0.3-0.2-0.3L231,274.5v-0.3l-0.2,0.1
		c-0.1,0.2-0.2,0.3-0.3,0.5c-0.1,0.1-0.1,0.3-0.1,0.4c0,0.1,0,0.2,0,0.3c0,0.1,0,0.2,0,0.3c0,0.1,0,0.3-0.1,0.5l0.2,0.1l-0.2-0.1
		c0,0.1-0.1,0.2-0.3,0.3c-0.2,0.1-0.5,0.2-0.9,0.4c-0.2,0.1-0.3,0.1-0.4,0.2c-0.1,0.1-0.3,0.2-0.3,0.4l0.2,0.1l0.2-0.1
		c-0.1-0.2-0.2-0.5-0.2-0.8c0-0.5,0.2-1,0.5-1.4c0.3-0.4,0.8-0.6,1.3-0.7c0.1,0,0.2,0,0.4,0L231,274.5v-0.3V274.5z"/>
	<path id="XMLID_188_" class="st0" d="M238.7,280.4c0-1.3,1.3-1.1,1.3-2.4c0-0.6-0.3-1.6-1-1.6c-0.6,0-1.3,0.6-1.3,1.3
		C237.4,279,238.7,279.2,238.7,280.4z"/>
	<path id="XMLID_189_" class="st2" d="M238.7,280.4h0.3c0-0.3,0.1-0.4,0.2-0.6c0.1-0.2,0.4-0.4,0.6-0.6c0.1-0.1,0.2-0.3,0.3-0.5
		c0.1-0.2,0.1-0.4,0.1-0.7c0-0.4-0.1-0.8-0.3-1.2c-0.1-0.2-0.2-0.4-0.4-0.5c-0.2-0.1-0.4-0.2-0.6-0.2c-0.4,0-0.8,0.2-1.1,0.5
		c-0.3,0.3-0.5,0.7-0.5,1.1h0.3l-0.3-0.1c0,0.1,0,0.3,0,0.4c0,0.3,0.1,0.5,0.2,0.7c0.2,0.3,0.4,0.5,0.6,0.8c0.2,0.2,0.3,0.5,0.3,0.9
		l0.1,0.2l0.2,0.1l0.2-0.1l0.1-0.2H238.7h0.3c0-0.3-0.1-0.6-0.2-0.8c-0.2-0.3-0.4-0.6-0.6-0.8c-0.2-0.2-0.3-0.4-0.3-0.7
		c0-0.1,0-0.2,0-0.3l0-0.1c0-0.2,0.1-0.5,0.3-0.7c0.2-0.2,0.5-0.3,0.7-0.3c0.1,0,0.2,0,0.3,0.1c0.1,0.1,0.3,0.3,0.3,0.6
		c0.1,0.2,0.1,0.5,0.1,0.7c0,0.3-0.1,0.4-0.2,0.6c-0.1,0.2-0.4,0.4-0.6,0.6c-0.1,0.1-0.2,0.3-0.3,0.5c-0.1,0.2-0.1,0.4-0.1,0.7
		l0.1,0.2l0.2,0.1l0.2-0.1l0.1-0.2H238.7z"/>
	<path id="XMLID_190_" class="st0" d="M247.9,276.8c1.9,0,1.7,2.6,0.8,3.8c0-0.9-1.6-1.3-1.6-1.9
		C247.1,277.7,248.6,277.7,247.9,276.8z"/>
	<path id="XMLID_191_" class="st2" d="M247.9,276.8v0.3c0.5,0,0.7,0.2,0.9,0.4c0.2,0.2,0.3,0.6,0.3,1c0,0.7-0.3,1.5-0.6,2l0.2,0.2
		h0.3c0-0.3-0.1-0.6-0.3-0.8c-0.3-0.3-0.6-0.5-0.9-0.7c-0.1-0.1-0.3-0.2-0.3-0.3l-0.1-0.2c0-0.2,0-0.3,0.1-0.4
		c0.1-0.2,0.3-0.3,0.5-0.4c0.1-0.1,0.2-0.2,0.3-0.3c0.1-0.1,0.1-0.3,0.1-0.4c0-0.2-0.1-0.4-0.2-0.6l-0.2-0.1l-0.2,0.1l-0.1,0.2
		l0.1,0.2l0.2,0.1V276.8v0.3V276.8l-0.2,0.1c0.1,0.1,0.1,0.2,0.1,0.3l-0.1,0.2c-0.1,0.1-0.3,0.3-0.5,0.5c-0.1,0.1-0.2,0.2-0.3,0.4
		c-0.1,0.1-0.1,0.3-0.1,0.5c0,0.1,0,0.3,0.1,0.4c0.1,0.2,0.3,0.3,0.4,0.4c0.3,0.2,0.5,0.4,0.8,0.6c0.1,0.1,0.2,0.2,0.2,0.3
		c0.1,0.1,0.1,0.2,0.1,0.3c0,0.1,0.1,0.2,0.2,0.2c0.1,0,0.2,0,0.3-0.1c0.5-0.6,0.7-1.5,0.7-2.3c0-0.5-0.1-1-0.4-1.4
		c-0.3-0.4-0.7-0.6-1.3-0.6l-0.2,0.1l-0.1,0.2l0.1,0.2l0.2,0.1V276.8z"/>
	<path id="XMLID_192_" class="st0" d="M269,274.5c2-0.3,2.9,1.9,2.3,3.2c-0.3-0.6-1.6-0.6-1.9-1.3C269,275.4,269.7,275.4,269,274.5z
		"/>
	<path id="XMLID_193_" class="st2" d="M269,274.5l0,0.3c0.1,0,0.2,0,0.4,0c0.6,0,1,0.3,1.3,0.7c0.3,0.4,0.5,0.9,0.5,1.4
		c0,0.3-0.1,0.6-0.2,0.8l0.2,0.1l0.2-0.1c-0.1-0.2-0.3-0.4-0.5-0.5c-0.3-0.2-0.6-0.3-0.9-0.4c-0.1-0.1-0.3-0.1-0.3-0.2
		c-0.1-0.1-0.1-0.1-0.2-0.2l-0.2,0.1l0.2-0.1c-0.1-0.2-0.1-0.4-0.1-0.5c0-0.1,0-0.2,0-0.3c0-0.1,0-0.2,0-0.3c0-0.1,0-0.3-0.1-0.4
		c-0.1-0.1-0.1-0.3-0.3-0.5l-0.2-0.1V274.5l0,0.3L269,274.5v0.3V274.5l-0.2,0.1c0.1,0.2,0.2,0.3,0.2,0.4c0,0.1,0,0.2,0,0.2
		c0,0.1,0,0.1,0,0.2c0,0.1,0,0.2,0,0.4c0,0.2,0,0.4,0.1,0.7l0,0c0.1,0.2,0.3,0.4,0.5,0.5c0.3,0.2,0.6,0.3,0.9,0.4
		c0.1,0.1,0.3,0.1,0.3,0.2c0.1,0.1,0.1,0.1,0.2,0.2c0,0.1,0.1,0.1,0.2,0.2s0.2-0.1,0.2-0.1c0.2-0.3,0.2-0.7,0.2-1
		c0-0.6-0.2-1.2-0.6-1.7c-0.4-0.5-1-0.8-1.7-0.8c-0.1,0-0.3,0-0.4,0c-0.1,0-0.2,0.1-0.2,0.3c0,0.1,0.1,0.2,0.3,0.2V274.5z"/>
	<path id="XMLID_194_" class="st0" d="M261.3,280.4c0-1.3-1.3-1.1-1.3-2.4c0-0.6,0.3-1.6,1-1.6c0.6,0,1.3,0.6,1.3,1.3
		C262.6,279,261.3,279.2,261.3,280.4z"/>
	<path id="XMLID_195_" class="st2" d="M261.3,280.4h0.3c0-0.4-0.1-0.7-0.2-0.9c-0.2-0.3-0.5-0.5-0.7-0.7c-0.1-0.1-0.2-0.2-0.2-0.3
		c-0.1-0.1-0.1-0.3-0.1-0.5c0-0.3,0.1-0.7,0.2-0.9c0.1-0.1,0.2-0.3,0.2-0.3c0.1-0.1,0.2-0.1,0.3-0.1c0.2,0,0.5,0.1,0.7,0.3
		c0.2,0.2,0.3,0.5,0.3,0.7l0,0.1c0,0.1,0,0.2,0,0.3c0,0.2,0,0.3-0.1,0.5c-0.1,0.2-0.3,0.5-0.5,0.7c-0.2,0.3-0.4,0.7-0.4,1.1H261.3
		v-0.3V280.4h0.3H261.3v0.3l0.2-0.1l0.1-0.2c0-0.2,0.1-0.4,0.1-0.6c0.1-0.3,0.3-0.5,0.5-0.7c0.2-0.3,0.4-0.6,0.4-1
		c0-0.1,0-0.3,0-0.4l-0.3,0.1h0.3c0-0.4-0.2-0.8-0.5-1.1c-0.3-0.3-0.7-0.5-1.1-0.5c-0.2,0-0.4,0.1-0.6,0.2c-0.2,0.2-0.4,0.5-0.5,0.8
		c-0.1,0.3-0.2,0.6-0.2,0.9c0,0.4,0.1,0.7,0.2,0.9c0.2,0.3,0.5,0.5,0.7,0.7c0.1,0.1,0.2,0.2,0.2,0.3c0.1,0.1,0.1,0.3,0.1,0.5
		l0.1,0.2l0.2,0.1V280.4z"/>
	<path id="XMLID_196_" class="st0" d="M252.1,276.8c-1.9,0-1.7,2.6-0.8,3.8c0-0.9,1.6-1.3,1.6-1.9
		C252.9,277.7,251.4,277.7,252.1,276.8z"/>
	<path id="XMLID_197_" class="st2" d="M252.1,276.8v-0.3c-0.6,0-1.1,0.2-1.3,0.6c-0.3,0.4-0.4,0.9-0.4,1.4c0,0.8,0.3,1.7,0.7,2.3
		c0.1,0.1,0.2,0.1,0.3,0.1c0.1,0,0.2-0.1,0.2-0.2c0-0.2,0.1-0.3,0.2-0.4c0.2-0.2,0.5-0.4,0.8-0.6c0.1-0.1,0.3-0.2,0.4-0.3
		c0.1-0.1,0.2-0.3,0.2-0.5c0-0.3-0.1-0.5-0.2-0.6c-0.2-0.3-0.4-0.4-0.6-0.6l-0.2-0.2l0-0.1c0,0,0-0.1,0.1-0.3l0-0.3
		c0-0.1-0.1-0.1-0.2-0.1V276.8l-0.2-0.1c-0.1,0.2-0.2,0.4-0.2,0.6c0,0.2,0.1,0.4,0.2,0.5c0.2,0.2,0.4,0.3,0.5,0.5l0.2,0.2
		c0,0.1,0.1,0.2,0.1,0.3l0,0.1c0,0.1-0.2,0.2-0.3,0.3c-0.2,0.2-0.5,0.4-0.8,0.6c-0.1,0.1-0.3,0.2-0.3,0.4c-0.1,0.2-0.2,0.3-0.2,0.5
		h0.3l0.2-0.2c-0.4-0.5-0.6-1.3-0.6-2c0-0.4,0.1-0.8,0.3-1c0.2-0.2,0.5-0.4,0.9-0.4V276.8l-0.2-0.1L252.1,276.8z"/>
	<path id="XMLID_198_" class="st0" d="M231.6,275.1c0.6,0,1.6,0.3,1.9,0.6L231.6,275.1L231.6,275.1z"/>
	<path id="XMLID_199_" class="st2" d="M231.6,275.1v0.2c0.3,0,0.7,0.1,1,0.2c0.3,0.1,0.6,0.3,0.7,0.4l0.1-0.1l0.1-0.2l-1.9-0.6
		l-0.2,0.1l0.1,0.2l0,0l0.1,0V275.1l0.1-0.2l0,0L231.6,275.1l-0.1,0.2l1.9,0.6l0.2-0.1l0-0.2c-0.2-0.2-0.5-0.4-0.9-0.5
		c-0.4-0.1-0.8-0.2-1.1-0.2V275.1l0.1-0.2L231.6,275.1z"/>
	<path id="XMLID_200_" class="st0" d="M234.8,276.1c0.3,0,1.6,0.3,2.3,0.6L234.8,276.1L234.8,276.1z"/>
	<path id="XMLID_201_" class="st2" d="M234.8,276.1v0.2c0.1,0,0.2,0,0.4,0c0.5,0.1,1.4,0.3,1.8,0.6l0.1-0.2l0-0.2l-2.3-0.6l-0.2,0.1
		l0,0.2l0,0l0.1,0.1V276.1l0.1-0.1l0,0L234.8,276.1l-0.1,0.2l2.3,0.6l0.2-0.1l-0.1-0.2c-0.3-0.2-0.8-0.3-1.3-0.5
		c-0.2-0.1-0.4-0.1-0.6-0.1c-0.2,0-0.3-0.1-0.4-0.1V276.1l0.1-0.1L234.8,276.1z"/>
	<path id="XMLID_202_" class="st0" d="M246.5,277.4c-0.6,0-1.9,0-2.3,0.3L246.5,277.4L246.5,277.4z"/>
	<path id="XMLID_203_" class="st2" d="M246.5,277.4v-0.2c-0.3,0-0.8,0-1.3,0c-0.2,0-0.4,0-0.6,0.1c-0.2,0-0.4,0.1-0.5,0.2l-0.1,0.2
		l0.2,0.1l2.3-0.3L246.5,277.4l-0.2,0.1l0,0L246.5,277.4v-0.2V277.4l0.2-0.1l0,0l-0.2-0.1l-2.3,0.3l0,0.2l0.1,0.1
		c0,0,0.2-0.1,0.3-0.1c0.5-0.1,1.3-0.1,1.8-0.1l0.2-0.1l0-0.2L246.5,277.4z"/>
	<path id="XMLID_204_" class="st0" d="M242.9,277.4c-0.3-0.3-1.6-0.3-2.3,0H242.9L242.9,277.4z"/>
	<path id="XMLID_205_" class="st2" d="M242.9,277.4l0.1-0.1c-0.1-0.1-0.3-0.2-0.5-0.2c-0.2,0-0.4-0.1-0.7-0.1c-0.5,0-1,0.1-1.3,0.3
		l-0.1,0.2l0.2,0.1h2.3h0l0.2-0.1l0-0.2L242.9,277.4v-0.2h0h-2.3v0.2l0.1,0.2c0.3-0.2,0.7-0.2,1.2-0.2c0.2,0,0.4,0,0.6,0.1
		c0.2,0,0.3,0.1,0.3,0.1L242.9,277.4v-0.2V277.4z"/>
	<path id="XMLID_206_" class="st0" d="M268.4,275.1c-0.6,0-1.6,0.3-1.9,0.6L268.4,275.1z"/>
	<path id="XMLID_207_" class="st2" d="M268.4,275.1V275c-0.3,0-0.8,0.1-1.1,0.2c-0.4,0.1-0.7,0.3-0.9,0.5l0,0.2l0.2,0.1l1.9-0.6
		l0.1-0.2l-0.2-0.2V275.1l-0.1-0.2l-1.9,0.6l0.1,0.2l0.1,0.1c0.1-0.1,0.4-0.3,0.8-0.4c0.3-0.1,0.7-0.2,1-0.2V275.1l-0.1-0.2
		L268.4,275.1z"/>
	<path id="XMLID_208_" class="st0" d="M265.2,276.1c-0.3,0-1.6,0.3-2.3,0.6L265.2,276.1L265.2,276.1z"/>
	<path id="XMLID_209_" class="st2" d="M265.2,276.1v-0.2c-0.1,0-0.3,0-0.4,0.1c-0.6,0.1-1.4,0.3-1.9,0.6l-0.1,0.2l0.2,0.1l2.3-0.6
		L265.2,276.1l-0.1-0.1l0,0L265.2,276.1v-0.2V276.1l0.1,0.1l0,0l0-0.2l-0.2-0.1l-2.3,0.6l0,0.2l0.1,0.2c0.3-0.2,0.8-0.3,1.2-0.4
		c0.2-0.1,0.4-0.1,0.6-0.1c0.2,0,0.3,0,0.4,0l0.1-0.1L265.2,276.1z"/>
	<path id="XMLID_210_" class="st0" d="M253.5,277.4c0.6,0,1.9,0,2.3,0.3L253.5,277.4L253.5,277.4z"/>
	<path id="XMLID_211_" class="st2" d="M253.5,277.4v0.2c0.3,0,0.8,0,1.2,0c0.2,0,0.4,0,0.6,0.1c0.2,0,0.3,0.1,0.3,0.1l0.1-0.1l0-0.2
		l-2.3-0.3l-0.2,0.1l0,0.2l0,0l0.1,0.1V277.4l0.1-0.1l0,0L253.5,277.4l0,0.2l2.3,0.3l0.2-0.1l-0.1-0.2c-0.1-0.1-0.3-0.2-0.5-0.2
		c-0.6-0.1-1.4-0.1-1.9-0.1V277.4l0.1-0.1L253.5,277.4z"/>
	<path id="XMLID_212_" class="st0" d="M257.1,277.4c0.3-0.3,1.6-0.3,2.3,0H257.1L257.1,277.4z"/>
	<path id="XMLID_213_" class="st2" d="M257.1,277.4l0.1,0.1c0,0,0.2-0.1,0.3-0.1c0.2,0,0.4-0.1,0.6-0.1c0.4,0,0.9,0.1,1.2,0.2
		l0.1-0.2v-0.2h-2.3l-0.1,0.1l-0.1,0.1l0.1,0.1l0.1,0.1h0l0.1-0.1L257.1,277.4v-0.2h0l-0.1,0.1l-0.1,0.1l0.1,0.1l0.1,0.1h2.3
		l0.2-0.1l-0.1-0.2c-0.4-0.2-0.9-0.3-1.3-0.3c-0.2,0-0.5,0-0.7,0.1c-0.2,0-0.4,0.1-0.5,0.2L257.1,277.4v-0.2V277.4z"/>
	<path id="XMLID_214_" class="st2" d="M231.1,280.2c-0.2,0-0.3-0.2-0.3-0.4c0.1-0.2,0.3-0.4,0.5-0.3c0.1,0,0.3,0.3,0.3,0.3
		c0,0.1-0.1,0.3-0.2,0.3l-0.1,0C231.3,280.2,231.2,280.3,231.1,280.2z"/>
	<path id="XMLID_215_" class="st2" d="M253.4,281.8l-0.2-0.3c0-0.2,0.2-0.4,0.4-0.4l0.3,0.2c0.1,0.1,0.1,0.4-0.1,0.5
		C253.7,281.9,253.5,281.9,253.4,281.8z"/>
	<path id="XMLID_216_" class="st2" d="M253.5,282.8c-0.2-0.1-0.2-0.1-0.2-0.3c0-0.2,0-0.2,0.2-0.3l0.1-0.1l0.1,0.1
		c0.2,0.1,0.3,0.2,0.3,0.3c0,0.1-0.1,0.3-0.3,0.4C253.6,282.9,253.6,282.9,253.5,282.8L253.5,282.8z"/>
	<path id="XMLID_219_" class="st2" d="M232.9,278.4c-0.1,0-0.3,0.1-0.4,0.2c-0.3,0.1-0.6,0.2-0.8,0.1c-0.3-0.1-0.6,0-0.6,0.3
		c0.1,0.3,0.4,0.4,0.7,0.2c0.2-0.2,0.6-0.3,0.7,0c-0.2,0.3-0.2,0.7-0.3,1c0,0.2-0.1,0.4-0.2,0.5c-0.2,0-0.4,0-0.5,0.1
		c-0.3,0-0.5,0.1-0.7,0.4c-0.2,0.2-0.3,0.5-0.4,0.8c0,0.3,0.4,0.4,0.6,0.4c0.3,0.1,0.5,0.2,0.8,0.3c0.4,0.1,0.9,0.3,1.3,0.4
		c0.6,0.2,1.3,0.3,2,0.5l0.2,0.1c0.3,0.1,0.4-0.2,0.4-0.5c0.1-0.5,0.2-0.9,0.4-1.4c0.1-0.2,0.2-0.6-0.2-0.5
		c-0.2,0.1-0.4,0.3-0.6,0.3c-0.4,0-0.2,0.4,0,0.5c0,0.2,0,0.5-0.2,0.7c-0.2,0.1-0.5,0-0.7-0.1c-0.2,0-0.7-0.1-0.5-0.4
		c0.1-0.2,0.1-0.5,0.2-0.7c0.1-0.2,0.1-0.5,0.2-0.8c-0.1-0.3-0.4,0.1-0.6,0.1c-0.1,0.1-0.7,0.1-0.4,0.4c0.2,0.2,0.1,0.5,0,0.7
		c0,0.3-0.3,0.4-0.6,0.3c-0.3,0-0.6-0.2-0.4-0.5c0-0.2,0.1-0.5,0.2-0.7c0.1-0.3,0.2-0.6,0.3-0.8c0-0.3,0.1-0.5,0.3-0.7
		c0-0.3,0.2-0.5,0.2-0.8C233,278.5,232.9,278.4,232.9,278.4L232.9,278.4z M231.4,281.4L231.4,281.4c0.2,0.1,0.2,0.1,0.1,0.2
		l-0.1,0.1c-0.2,0-0.2,0-0.3-0.1c0-0.1,0-0.1,0.1-0.1L231.4,281.4L231.4,281.4z"/>
	<path id="XMLID_220_" class="st2" d="M231,283.4c-0.2-0.2-0.2-0.3,0.1-0.5c0.1-0.1,0.2-0.1,0.4,0c0.2,0.2,0.2,0.3,0,0.5
		c-0.1,0.1-0.1,0.1-0.3,0.1C231.1,283.5,231.1,283.5,231,283.4L231,283.4z"/>
	<path id="XMLID_221_" class="st2" d="M232.2,283.8c-0.2,0-0.3-0.2-0.3-0.4c0.1-0.2,0.1-0.2,0.3-0.2c0.3,0,0.3,0,0.3,0.3
		c0,0.1,0,0.2-0.1,0.2C232.5,283.8,232.3,283.8,232.2,283.8L232.2,283.8z"/>
	<path id="XMLID_222_" class="st2" d="M268.4,283.8c-0.1-0.1-0.1-0.1-0.1-0.2c0-0.2,0.1-0.3,0.3-0.4c0.3-0.1,0.4-0.1,0.5,0.1
		c0.1,0.2,0.1,0.3,0,0.5c-0.1,0.1-0.1,0.1-0.3,0.1C268.5,283.9,268.5,283.9,268.4,283.8z"/>
	<path id="XMLID_223_" class="st2" d="M233.9,284.3c-0.1,0-0.2-0.2-0.2-0.3c0-0.1,0-0.2,0.1-0.2l0.2-0.1c0.1,0,0.1,0,0.2,0.1
		c0.2,0.2,0.3,0.3,0.1,0.5C234.2,284.3,234.1,284.3,233.9,284.3z"/>
	<path id="XMLID_224_" class="st2" d="M242.8,284.7l-0.1-0.1c0-0.2,0-0.5,0.1-0.7c0-0.2,0-0.4,0.1-0.6c0.1-0.4,0.1-0.8,0.2-1.1
		c0-0.2,0-0.4,0.1-0.6c0.1-0.3,0-0.6,0.1-0.9c0-0.1,0.1-0.4,0.2-0.2c0.2,0.2,0.4,0.4,0.6,0.6c0.2,0.1,0,0.3-0.1,0.3
		c-0.2,0.1-0.2,0.3-0.2,0.4c0,0.2-0.1,0.3-0.1,0.5c0,0.3,0,0.5-0.1,0.8c-0.1,0.2,0,0.5-0.1,0.8c0,0.2-0.1,0.3-0.1,0.5
		c0,0.2,0,0.4-0.2,0.5C243.1,284.8,242.9,284.8,242.8,284.7L242.8,284.7z"/>
	<path id="XMLID_227_" class="st2" d="M254.8,280.7c-0.2,0.1-0.4,0.3-0.5,0.5c-0.2,0.2,0.2,0.3,0.3,0.4c0.1,0.2,0.1,0.5,0.1,0.7
		c0.1,0.2,0.1,0.5,0.1,0.7c0,0.3-0.4,0.2-0.5,0.3c-0.2,0.1-0.3,0.3-0.4,0.4c-0.1,0.2-0.1,0.4-0.1,0.7c0,0.2-0.1,0.4,0,0.5l0.1,0.1
		l0.2,0c0.2,0,0.4,0,0.6-0.1c0.5-0.1,1-0.1,1.5-0.1c0.3,0,0.6-0.1,0.9-0.1c0.2,0.1,0.3-0.2,0.3-0.4c-0.1-0.3,0-0.6-0.1-0.8
		c-0.1-0.3-0.1-0.6-0.1-0.9c0-0.2-0.3-0.3-0.4-0.1c-0.1,0.1-0.4,0.2-0.5,0.3c-0.1,0.2,0.3,0.2,0.3,0.4c0.1,0.2,0,0.4,0.1,0.6
		c0,0.2-0.2,0.3-0.4,0.3c-0.2,0.1-0.5,0.1-0.6-0.1c-0.1-0.2-0.1-0.4-0.1-0.6c0-0.4-0.1-0.7-0.1-1.1c0-0.4-0.1-0.9-0.1-1.3
		C255.1,280.9,255.1,280.6,254.8,280.7L254.8,280.7z M254.5,284l0.1,0l0,0.2l0,0.2l-0.2,0.1l-0.2,0l-0.1-0.1
		c-0.1-0.1-0.1-0.2,0.1-0.3C254.4,284,254.4,284,254.5,284z"/>
	<path id="XMLID_230_" class="st2" d="M242.4,280.3c-0.2,0.1-0.3,0.3-0.5,0.3c-0.4,0-0.3,0.4-0.1,0.5c0,0.1,0,0.2,0,0.4
		c0,0.3-0.2,0.6-0.1,0.9c0,0.4-0.1,0.7-0.1,1.1c-0.1,0.4-0.1,0.7-0.2,1.1c0,0.3-0.3,0.2-0.5,0.1c0-0.1,0-0.3,0-0.4
		c0.1-0.3-0.2-0.4-0.4-0.5c-0.3,0-0.4-0.2-0.4-0.5c0.1-0.1,0.4-0.1,0.6-0.1c0.4,0.1,0.4-0.5,0.2-0.6c-0.1-0.3-0.5-0.4-0.6-0.6
		c0-0.4-0.2-0.7-0.5-0.9c-0.4,0-0.8,0.3-0.9,0.7c-0.2,0.1-0.4,0.1-0.5,0.2c-0.3,0.1-0.7,0.6-0.3,0.8c0.2,0.1,0.9,0.2,0.6,0.5
		c-0.2,0.3-0.5,0.3-0.8,0.2c-0.3,0-0.6-0.1-0.6-0.5c-0.1-0.3-0.1-0.6-0.2-0.9c-0.1-0.3-0.4-0.3-0.5,0.1c-0.3,0.2-0.3,0.6-0.1,0.8
		c0.1,0.3,0,0.6-0.1,0.9c-0.1,0.4-0.5,0.4-0.7,0.5c-0.1,0.1-0.7,0-0.5,0.3c0.3,0.1,0.7,0.2,1,0.1c0.3,0,0.6-0.3,0.8-0.6
		c0.2-0.2,0.6-0.1,0.9-0.1c0.3,0,0.6,0.2,0.9,0.1c0.1-0.2,0.5-0.6,0.6-0.2c0,0.3,0.3,0.5,0.6,0.5c0.4,0,0.2,0.2,0.2,0.5
		c0,0.4,0.3,0.6,0.6,0.7c0.1,0,0.2,0,0.3,0c0.3-0.1,0.6-0.2,0.7-0.6c0.1-0.3,0.1-0.6,0.2-0.9c0.1-0.5,0.2-0.9,0.2-1.4
		c0.1-0.4,0.1-0.9,0.2-1.3c0.1-0.3,0.1-0.6,0.1-1C242.6,280.3,242.5,280.2,242.4,280.3L242.4,280.3z M239.6,282
		c0.1,0,0.1,0.1,0.1,0.2c0,0.1,0.1,0.3,0.2,0.3l0,0.2c0,0-0.1,0.1-0.3,0.1c-0.2,0-0.4-0.1-0.5-0.2l-0.1-0.1l0.1-0.1l0.2-0.2
		C239.5,282,239.6,282,239.6,282z"/>
	<path id="XMLID_237_" class="st2" d="M266.4,278.8c-0.2,0-0.5,0-0.7,0.1c-0.4,0-0.6,0.4-0.2,0.6c0.2,0.6,0.6-0.1,1-0.1
		c0.6,0.1,0.6,0.7,0.7,1.2c0,0.5,0.2,0.9,0.3,1.4c0.4,0.4-0.3,0.7-0.6,0.4c-0.2-0.3-0.8-0.6-1.1-0.2c-0.4,0.2-0.4,0.6-0.7,0.8
		c-0.5,0.1-0.6-0.5-0.8-0.7c-0.2-0.3-0.7-0.4-1.1-0.5c-0.2-0.4-0.1-1-0.4-1.2c-0.3,0.1-0.9,0.7-0.4,1c0.5,0.4-0.2,0.6-0.4,0.8
		c-0.3,0.3-0.3,0.8-0.4,1.2c-0.5,0.3-0.6-0.3-0.7-0.7c0-0.5-0.4-0.3-0.7-0.2c-0.4,0.2-0.6,0.5-0.8,0.8c0,0.3,0,0.6,0,0.8
		c0.1,0.3,0.5,0.2,0.7,0.2c0.4-0.2,0.6,0.3,0.2,0.5c-0.2,0.3-0.9,0.1-0.8,0.6c0.2,0,0.5,0,0.7,0c0.4-0.1,0.9-0.4,1-0.9
		c0.1-0.4,0.7-0.4,1-0.4c0.4-0.1,0.9-0.2,1,0.4c0.3,0.3,0.9,0.6,1.2,0.2c0.3-0.2,0.5-0.5,0.5-0.9c-0.1-0.3,0.5-0.3,0.7-0.2
		c0.2,0.3,0.9,0.2,1.2,0.1c0.3-0.3,0.4-0.7,0.9-0.7c0.7-0.2,1.5-0.3,2.2-0.6c0.6-0.1-0.1-0.5-0.2-0.7c-0.4-0.2-0.8,0.7-1.3,0.2
		c-0.4-0.3-0.4-0.8-0.5-1.3c-0.1-0.6-0.1-1.2-0.5-1.6C267.2,278.8,266.8,278.8,266.4,278.8L266.4,278.8z M263.7,282.6
		c0.1,0,0.1,0,0.2,0.1c0.2,0.1,0.3,0.3,0.3,0.4c0,0.1,0,0.1-0.2,0.2l-0.2,0.1l-0.3-0.2l-0.1-0.2c0-0.1,0-0.1,0-0.2L263.7,282.6z
		 M266.3,282.7c0.2,0,0.2,0,0.3,0.2c0.1,0.1,0,0.2-0.2,0.3l-0.2,0.1l-0.2-0.1c-0.1-0.1-0.1-0.1-0.1-0.2
		C266,282.9,266.1,282.8,266.3,282.7z M262.7,282.8l0.1,0.1c0.1,0.1,0.1,0.1,0.1,0.2v0.3c0,0.1,0,0.1-0.2,0.1c-0.3,0-0.3,0-0.3-0.3
		c0-0.2,0-0.2,0.1-0.3L262.7,282.8z M260.5,283.4c0.1,0,0.2,0.1,0.2,0.2c0,0.1,0,0.2-0.1,0.2c-0.1,0-0.3,0.1-0.4,0l-0.1-0.1l0-0.1
		l0.1-0.1l0.1-0.1L260.5,283.4z M264.2,283.9l0.2,0.1l0,0.2c-0.1,0-0.4,0-0.5,0l-0.1-0.1c0-0.1,0-0.1,0.1-0.1L264.2,283.9z"/>
	<path id="XMLID_238_" class="st2" d="M257.2,285.8L257.2,285.8c0-0.2,0.2-0.3,0.3-0.3c0.2-0.1,0.4-0.3,0.6-0.5
		c0-0.1,0.2-0.2,0.2-0.3c0-0.2,0-0.4,0-0.6c-0.1-0.2-0.2-0.3-0.3-0.4c-0.1-0.1-0.3-0.1-0.3-0.2c0-0.1,0.1-0.2,0.1-0.4
		c0.1-0.2,0.2-0.4,0.3-0.5c0.1-0.1,0.3,0,0.3,0.1c0.1,0.1,0.1,0.2,0.2,0.4c0.1,0.1,0.2,0.3,0.3,0.5c0.1,0.1,0.2,0.2,0.1,0.4
		c0,0.2,0.1,0.3,0.1,0.5c0,0.2,0,0.5-0.1,0.7c-0.1,0.1-0.2,0.2-0.2,0.3c-0.1,0.1-0.3,0.2-0.4,0.3c-0.1,0-0.2,0.2-0.3,0.1
		C257.7,285.8,257.5,285.9,257.2,285.8L257.2,285.8L257.2,285.8z"/>
	<path id="XMLID_239_" class="st2" d="M254.5,286c-0.1-0.1-0.1-0.1-0.1-0.2c0-0.1,0-0.1,0.1-0.2c0.2-0.2,0.3-0.2,0.6,0
		c0.3,0.1,0.4,0.2,0.4,0.1c0-0.1,0.2-0.2,0.4-0.2c0.1,0,0.2,0,0.2,0.1c0.1,0.1,0.1,0.1,0.1,0.3c0,0.2,0,0.2-0.1,0.3
		c-0.1,0.1-0.1,0.1-0.3,0.1c-0.2,0-0.3-0.1-0.3-0.2c0-0.1-0.1-0.1-0.1-0.1l-0.1,0.1c-0.1,0-0.2,0.1-0.3,0.2c0,0-0.1,0.1-0.2,0.1
		C254.6,286.1,254.6,286.1,254.5,286L254.5,286z"/>
	<path id="XMLID_243_" class="st2" d="M246.4,282.4c-0.3,0-0.6,0.2-0.6,0.5c0.1,0.3,0.3,0.6,0.2,0.9c0.1,0.4-0.3,0.6-0.6,0.3
		c-0.2-0.4-0.3-0.8-0.5-1.2c-0.3-0.1-0.5,0.4-0.7,0.6c0.1,0.3,0.4,0.6,0.5,1c0.1,0.4-0.1,0.8-0.5,1c-0.3,0.3-0.7,0.2-1,0.2
		c-0.4,0.2,0.3,0.3,0.5,0.3c0.4,0,0.9,0,1.2-0.3c0.3-0.1,0.3-0.7,0.7-0.7c0.6,0,1.3,0.1,1.9,0.1c0.3,0.1,0.9,0,1.1,0.2
		c0,0.4,0.4,0.7,0.7,0.9c0.2,0.1,0.4-0.2,0.6-0.2c0.4-0.1,0.3-0.6,0.5-0.8c0.7,0,1.3,0,2,0c0.1,0,0.2-0.2,0.3-0.3
		c0-0.3,0-0.5-0.1-0.8c-0.1-0.3,0-0.7-0.2-1c-0.3-0.1-0.6,0.2-1,0.2c-0.4,0.2-0.7,0.5-0.7,0.9c-0.2,0.4-0.6-0.1-0.5-0.4
		c0-0.1,0-0.3,0-0.4c-0.2-0.2-0.6-0.2-0.8-0.2c-0.4,0-0.8-0.1-1.2-0.1c-0.4,0-0.7,0-1.1-0.1c-0.4,0-0.4-0.4-0.4-0.7L246.4,282.4z
		 M247.2,283.9c0.1,0,0.3,0,0.4,0c0.2,0,0.4-0.1,0.5,0c0.4,0.1,0.8,0.1,1.2,0.1c0.1,0,0.2,0.1,0.3,0.1c0,0.3,0,0.6,0,0.8
		c0,0.1,0,0.2-0.1,0.3l-0.1,0.1c-0.1,0-0.2-0.1-0.3-0.2c0-0.1,0-0.3,0-0.4v-0.1c-0.1-0.1-0.2-0.1-0.3-0.1c-0.3,0-0.7,0-1-0.1
		c-0.3,0-0.6,0-0.9-0.1c-0.1,0-0.3,0-0.3-0.1c-0.1-0.1,0-0.2,0.1-0.3C247,283.9,247.1,283.9,247.2,283.9z M251.8,284
		c0.1,0,0.1,0,0.1,0.1l0.1,0.2l-0.1,0.1c-0.2,0.1-0.4,0.1-0.5,0l0.1-0.2C251.6,284,251.7,284,251.8,284L251.8,284z"/>
	<path id="XMLID_244_" class="st0" d="M250,261c13.2-10.2,12.1-25.1,12.1-25.1c-0.3,0.1-0.7,0.1-1,0.1c-2.8,0-9.4-1.6-10.9-3.6
		c-1.7,1.8-8.4,3.6-11.2,3.6c-0.3,0-0.7,0-1-0.1C237.9,235.9,236.8,250.9,250,261L250,261z"/>
	<path id="XMLID_245_" class="st2" d="M250,261l0.1,0.2c5.7-4.4,8.7-9.6,10.4-14.2c1.6-4.6,1.8-8.5,1.8-10.2c0-0.6,0-0.9,0-0.9
		l0-0.3l-0.3,0.1c-0.3,0.1-0.7,0.1-1,0.1c-1.3,0-3.7-0.4-5.9-1c-1.1-0.3-2.1-0.7-3-1.1c-0.9-0.4-1.5-0.9-1.9-1.3l-0.2-0.2l-0.2,0.2
		c-0.4,0.4-1.1,0.9-2,1.3c-1.3,0.6-3.1,1.2-4.8,1.6c-1.7,0.4-3.3,0.7-4.3,0.7c-0.3,0-0.7,0-1-0.1l-0.3-0.1l0,0.3c0,0,0,0.3,0,0.9
		c0,1.7,0.2,5.6,1.8,10.2c1.6,4.6,4.7,9.8,10.4,14.2l0.1,0h0.1h0.1l0.1,0L250,261v-0.2h0L250,261l0.1-0.2c-5.6-4.3-8.6-9.5-10.2-14
		c-1.6-4.5-1.8-8.4-1.8-10c0-0.3,0-0.5,0-0.7l0-0.2l0-0.1l-0.2,0l0,0.2c0.3,0.1,0.7,0.1,1.1,0.1c1.4,0,3.8-0.5,6.1-1.1
		c1.1-0.3,2.2-0.7,3.2-1.2c0.9-0.4,1.7-0.9,2.1-1.4l-0.2-0.2l-0.2,0.1c0.4,0.6,1.2,1,2.1,1.5c1.3,0.7,3.1,1.2,4.7,1.6
		c1.7,0.4,3.3,0.6,4.3,0.6c0.4,0,0.7,0,1.1-0.1l0-0.2l-0.2,0l0,0.1c0,0.1,0,0.4,0,0.8c0,1.7-0.2,5.5-1.8,10
		c-1.6,4.5-4.6,9.7-10.2,14L250,261v-0.2V261z"/>
	<path id="XMLID_246_" class="st0" d="M261,237c-0.1,0-0.2,0-0.3,0c-2.5,0-8.4-1.3-10.6-3.2c-2.4,1.8-8.3,3.2-10.8,3.2
		c-0.1,0-0.2,0-0.3,0c0,0.6,0,1.1,0.1,1.7c0.1,2,0.5,4,1,5.9c1.7,6,5.1,11.2,10,15.1c4.9-3.9,8.3-9,10-15.1c0.5-1.9,0.9-3.9,1-5.9
		C261,238.2,261,237.6,261,237L261,237z"/>
	<path id="XMLID_248_" class="st2" d="M261,237l0-0.2c-0.1,0-0.2,0-0.3,0c-1.2,0-3.3-0.3-5.4-0.9c-2-0.6-4.1-1.4-5.1-2.3l-0.1-0.1
		l-0.1,0.1c-1.1,0.9-3.2,1.7-5.3,2.3c-2.1,0.6-4.2,0.9-5.4,0.9c-0.1,0-0.2,0-0.3,0l-0.2,0l0,0.2l0,0.1c0,0.5,0,1.1,0.1,1.5
		c0.1,2,0.5,4,1,5.9c1.7,6.1,5.1,11.2,10,15.2l0.1,0.1l0.1-0.1c4.9-3.9,8.4-9.1,10-15.2c0.5-1.9,0.9-3.9,1-5.9c0-0.5,0.1-1,0.1-1.6
		l0-0.1L261,237l0,0.2h0V237l0-0.2L261,237v-0.2h0h-0.2l0,0.2l0,0.1c0,0.5,0,1-0.1,1.5c-0.1,2-0.5,4-1,5.9c-1.7,6-5,11.1-9.9,15
		l0.1,0.1l0.1-0.1c-4.9-3.9-8.2-9-9.9-15c-0.5-1.9-0.9-3.9-1-5.9c0-0.5-0.1-1-0.1-1.5l0-0.1l-0.2,0l0,0.2c0.1,0,0.2,0,0.4,0
		c1.3,0,3.4-0.4,5.5-0.9c2.1-0.6,4.2-1.4,5.4-2.3l-0.1-0.1L250,234c1.2,1,3.2,1.8,5.3,2.4c2.1,0.6,4.2,0.9,5.5,0.9
		c0.1,0,0.2,0,0.4,0l0-0.4V237z"/>
	<path id="XMLID_249_" class="st2" d="M245.7,235.8c-2.4,0.7-5,1.2-6.4,1.2c-0.1,0-0.2,0-0.3,0c0,0.6,0,1.2,0.1,1.7
		c0.1,2,0.5,4,1,5.9c1.1,4.1,3,7.7,5.7,10.9L245.7,235.8L245.7,235.8z"/>
	<path id="XMLID_250_" class="st2" d="M254.1,235.8v20c2.8-3.2,4.8-7,5.9-11.2c0.5-1.9,0.9-3.9,1-5.9c0-0.5,0.1-1.1,0.1-1.6
		c-0.1,0-0.2,0-0.3,0C259.2,237,256.5,236.6,254.1,235.8L254.1,235.8z"/>
	<path id="XMLID_254_" class="st0" d="M255,231c0.3,0-0.4-1.4-0.4-1.4c0.7,0.7,3.4,0.9,3.4,0.9c-1.6-0.7-3.2-6.1-3.1-10.4
		c0.2-4.3-0.6-6-1.3-6.7c-0.8-0.8-3.4-1.5-5.1-1.6c-1,0-0.8,0.7-0.8,0.7c-1.8-0.5-3.6-0.6-4.4-0.1c-0.8,0.5-0.9,3.1-0.4,2.6
		c1.4-1.1,2.5-0.1,3.3,1.1c0.7,1,0.7,4-0.4,7.4c-1.1,3.6-4,7.2-4,7.2c1.6,0,3.9-1.4,3.9-1.4l-0.5,2.2c1.7-0.8,3.1-2.1,3.1-2.1
		l1.6,1.7c0.5-0.7,1.6-1.7,1.6-1.7S252.9,230.8,255,231L255,231z"/>
	<path id="XMLID_255_" class="st2" d="M255,231l0,0.2l0,0l0.2,0l0.1-0.2l0-0.1c0-0.1,0-0.3-0.1-0.4c-0.1-0.4-0.4-1-0.4-1l-0.2,0.1
		l-0.2,0.2c0.2,0.2,0.6,0.4,0.9,0.5c1.1,0.4,2.6,0.5,2.6,0.5l0.1-0.5c-0.3-0.1-0.7-0.5-1-1.1c-0.5-0.9-1-2.2-1.3-3.7
		c-0.3-1.5-0.6-3.1-0.6-4.7c0-0.2,0-0.5,0-0.7v0c0-0.4,0-0.8,0-1.2c0-3.5-0.7-5-1.4-5.7c-0.2-0.2-0.6-0.4-1-0.6
		c-1.2-0.6-3-1-4.3-1.1h0h0l-0.1,0c-0.4,0-0.7,0.1-0.8,0.3c-0.2,0.2-0.2,0.4-0.2,0.5c0,0.1,0,0.2,0,0.2l0.2,0l0.1-0.2
		c-1-0.3-2.1-0.4-2.9-0.4c-0.7,0-1.2,0.1-1.7,0.4c-0.2,0.1-0.3,0.3-0.4,0.4c-0.3,0.5-0.4,1.2-0.4,1.8c0,0.2,0,0.4,0.1,0.5l0.1,0.2
		c0.1,0.1,0.2,0.1,0.3,0.1c0.1,0,0.2-0.1,0.3-0.1c0.4-0.3,0.7-0.4,1-0.4c0.4,0,0.7,0.2,1,0.4c0.3,0.3,0.6,0.6,0.9,1l0,0l0,0
		c0.3,0.4,0.4,1.2,0.4,2.2c0,1.3-0.3,3.1-0.8,5l0,0c-0.5,1.8-1.5,3.5-2.4,4.9c-0.4,0.7-0.8,1.2-1.1,1.6c-0.1,0.2-0.3,0.3-0.3,0.5
		c-0.1,0.1-0.1,0.2-0.1,0.2l-0.3,0.4h0.5c0.9,0,1.9-0.4,2.6-0.7c0.8-0.4,1.4-0.7,1.4-0.7l-0.1-0.2l-0.2-0.1l-0.7,2.7l0.5-0.2
		c1.7-0.8,3.1-2.1,3.1-2.1l-0.2-0.2l-0.2,0.2l1.8,1.9l0.2-0.2c0.3-0.3,0.7-0.8,1-1.1c0.2-0.2,0.3-0.3,0.4-0.4
		c0.1-0.1,0.2-0.2,0.2-0.2l-0.2-0.2l-0.2,0.2c0,0,1.4,1.5,3.6,1.7L255,231l-0.2,0.1l0,0l0.1,0.2l0.2,0L255,231l0.2-0.1l0,0l-0.1-0.1
		l-0.2,0c-1-0.1-1.8-0.5-2.4-0.8c-0.3-0.2-0.5-0.4-0.7-0.5l-0.2-0.2l0,0l0,0l-0.2-0.2l-0.2,0.2c0,0-0.3,0.3-0.6,0.6
		c-0.3,0.3-0.8,0.8-1,1.1l0.2,0.1l0.2-0.2l-1.8-1.9l-0.2,0.2l-0.1,0.1c-0.3,0.2-1.5,1.3-2.9,2l0.1,0.2l0.2,0.1l0.7-2.8l-0.5,0.3
		l-0.1,0.1c-0.2,0.1-0.8,0.5-1.5,0.8c-0.7,0.3-1.5,0.6-2.1,0.6v0.2l0.2,0.2c0,0,3-3.6,4.1-7.3l0,0c0.6-1.9,0.9-3.7,0.9-5.1
		c0-1.1-0.2-2-0.5-2.5l0,0c-0.3-0.4-0.6-0.8-1-1.1c-0.4-0.3-0.8-0.5-1.3-0.5c-0.4,0-0.9,0.2-1.3,0.5l0,0l0,0l0,0l0,0l0,0l0,0l0,0.1
		v-0.1l0,0l0,0.1v-0.1v0.1l0.1-0.1l-0.1,0v0.1l0.1-0.1l0,0l0-0.1c0-0.1,0-0.2,0-0.3c0-0.3,0.1-0.7,0.2-1.1c0.1-0.2,0.1-0.3,0.2-0.5
		c0.1-0.1,0.2-0.2,0.2-0.3c0.3-0.2,0.8-0.3,1.4-0.3c0.8,0,1.8,0.2,2.8,0.4l0.4,0.1l-0.1-0.4l-0.1,0l0.1,0l0,0l-0.1,0l0.1,0l0-0.1
		l0.1-0.2c0.1-0.1,0.1-0.1,0.4-0.1l0.1,0l0,0c0.8,0,1.9,0.2,2.9,0.5c0.5,0.1,0.9,0.3,1.3,0.5c0.4,0.2,0.7,0.4,0.8,0.5
		c0.5,0.5,1.2,1.9,1.2,5.3c0,0.4,0,0.7,0,1.2v0c0,0.2,0,0.5,0,0.7c0,2.1,0.4,4.4,1,6.2c0.3,0.9,0.6,1.7,1,2.4
		c0.4,0.6,0.8,1.1,1.2,1.3l0.1-0.2l0-0.2l-0.1,0c-0.3,0-0.9-0.1-1.6-0.2c-0.3-0.1-0.7-0.2-0.9-0.3c-0.3-0.1-0.5-0.2-0.6-0.3
		l-0.4,0.3c0,0,0,0.1,0.1,0.2c0.1,0.1,0.1,0.4,0.2,0.6c0,0.1,0.1,0.2,0.1,0.3l0,0.2l0,0l0.1,0l-0.1,0l0,0l0.1,0l-0.1,0L255,231
		l-0.1-0.2l0,0.1L255,231l-0.1-0.2L255,231l0-0.2l-0.1,0.1L255,231l0-0.2L255,231l0-0.2l0,0L255,231l0-0.2L255,231l0.2-0.1L255,231z
		"/>
	<path id="XMLID_256_" class="st2" d="M248.2,220.6c0,0,0,0.1,0,0.3c-0.1,0.6-0.4,2.3-0.8,4c-0.2,0.8-0.5,1.7-0.8,2.4
		c-0.3,0.7-0.6,1.4-1,1.7l0.4,0.3c0.5-0.5,0.8-1.3,1.2-2.2c1-2.7,1.5-6.5,1.5-6.5L248.2,220.6z"/>
	<path id="XMLID_257_" class="st2" d="M249.6,220.4c0,0,0,0.1,0,0.3c0,0.7-0.2,2.3-0.4,4.1c-0.1,0.9-0.3,1.8-0.4,2.5
		c-0.2,0.8-0.4,1.5-0.6,1.9l0.5,0.2c0.3-0.6,0.6-1.4,0.8-2.4c0.6-2.8,0.8-6.6,0.8-6.6L249.6,220.4z"/>
	<path id="XMLID_258_" class="st2" d="M250.9,220.7c0,0,0,1.8,0.1,3.9c0,1,0.1,2,0.1,2.9c0,0.4,0.1,0.8,0.1,1.2
		c0,0.3,0.1,0.6,0.2,0.8l0.5-0.2c0-0.1-0.1-0.4-0.1-0.7c-0.1-1.1-0.2-3.1-0.3-4.8c0-0.8,0-1.6,0-2.2c0-0.6,0-0.9,0-0.9H250.9z"/>
	<path id="XMLID_259_" class="st2" d="M252.5,221.1c0,0,0.1,1.6,0.4,3.4c0.1,0.9,0.3,1.9,0.6,2.8c0.3,0.9,0.6,1.7,1,2.3l0.4-0.3
		c-0.4-0.5-0.7-1.3-0.9-2.2c-0.4-1.3-0.6-2.9-0.7-4.1c-0.1-0.6-0.1-1.1-0.2-1.5c0-0.4,0-0.6,0-0.6L252.5,221.1z"/>
	<path id="XMLID_260_" class="st2" d="M246.8,217.4c-0.1-0.6-0.2-1-0.4-1.4c-0.8-1.2-2-2.2-3.3-1.1c0,0,0.5-1.4,1.4-1.5
		c0.8,0,2.5,0.6,4,3.2c0,0-1.1-0.3-1.4,0C246.6,217.1,246.8,217.4,246.8,217.4L246.8,217.4z"/>
	<path id="XMLID_261_" class="st2" d="M246.8,217.4L246.8,217.4c0-0.6-0.2-1.1-0.4-1.4l0,0c-0.6-0.8-1.3-1.6-2.2-1.6
		c-0.4,0-0.8,0.1-1.2,0.5l0,0.1l0.1,0c0,0,0-0.1,0.1-0.2c0.1-0.2,0.2-0.5,0.5-0.7c0.2-0.3,0.5-0.4,0.8-0.5l0,0h0l0.1,0
		c0.8,0,2.4,0.6,3.9,3.1l0.1,0l0-0.1c0,0-0.5-0.1-1-0.1c-0.2,0-0.4,0-0.5,0.1l0,0c-0.3,0.3-0.4,0.5-0.4,0.6
		C246.7,217.4,246.7,217.4,246.8,217.4L246.8,217.4L246.8,217.4L246.8,217.4L246.8,217.4L246.8,217.4L246.8,217.4L246.8,217.4
		L246.8,217.4L246.8,217.4L246.8,217.4L246.8,217.4L246.8,217.4L246.8,217.4L246.8,217.4L246.8,217.4l0-0.2c0-0.1,0-0.3,0.3-0.5l0,0
		c0.1-0.1,0.2-0.1,0.4-0.1c0.2,0,0.4,0,0.6,0.1c0.2,0,0.3,0.1,0.3,0.1l0.2,0l-0.1-0.1c-1.5-2.5-3.2-3.2-4-3.2l-0.1,0l0,0.1l0-0.1
		c-0.5,0-0.9,0.4-1.1,0.8c-0.2,0.4-0.4,0.7-0.4,0.7l-0.1,0.2l0.2-0.1c0.4-0.3,0.8-0.4,1.1-0.4c0.8,0,1.5,0.7,2.1,1.5l0,0
		C246.5,216.4,246.6,216.8,246.8,217.4l0,0.2L246.8,217.4L246.8,217.4z"/>
	<path id="XMLID_262_" class="st2" d="M242.9,213.2c0.1-0.4,0.3-0.7,0.5-0.8c0.8-0.5,2.6-0.4,4.4,0.1c0,0-0.2-0.8,0.8-0.7
		c1.7,0.1,4.3,0.8,5.1,1.6c0.2,0.2,0.4,0.5,0.6,1h0c-0.4-0.6-1.5-0.5-1.8-0.5c-0.4,0-0.7,0-1.3,0.2c-0.3,0.1-0.7,0.1-0.9,0.3
		c-0.2,0.1-0.3,0.7-0.6,0.7c-0.4,0-0.4-0.1-0.5-0.2c-0.1-0.2-0.2-0.4-0.4-0.4c-0.4,0.1-1.2-0.3-2.1-1c-0.9-0.7-1.3-0.9-2.4-0.8
		C243.2,212.6,242.8,213.3,242.9,213.2L242.9,213.2L242.9,213.2z"/>
	<path id="XMLID_263_" class="st2" d="M242.9,213.2L242.9,213.2c0.2-0.3,0.4-0.7,0.5-0.8l0,0l0,0c0.3-0.2,0.9-0.3,1.5-0.3
		c0.8,0,1.8,0.2,2.9,0.4l0.1,0l0-0.1l0,0l0-0.1c0-0.1,0-0.2,0.1-0.3c0.1-0.1,0.2-0.2,0.6-0.2l0.1,0h0c0.9,0,1.9,0.2,2.9,0.5
		c1,0.3,1.8,0.7,2.2,1.1l0.1-0.1l-0.1,0c0.2,0.2,0.4,0.5,0.6,0.9l0.1,0v-0.1h0v0.1l0.1,0c-0.2-0.2-0.4-0.4-0.7-0.4
		c-0.3-0.1-0.6-0.1-0.8-0.1c-0.1,0-0.2,0-0.3,0l0,0c-0.4,0-0.7,0-1.3,0.2l0,0.1l0-0.1c-0.3,0.1-0.7,0.1-0.9,0.3l0,0l0,0
		c-0.1,0.1-0.2,0.3-0.3,0.4l-0.1,0.2l-0.1,0.1c-0.2,0-0.3,0-0.3-0.1l-0.1-0.2l-0.1,0l0.1,0l-0.2-0.3l-0.1-0.1l-0.1-0.1l0,0l0,0l0,0
		l-0.1,0c-0.4,0-1.1-0.3-1.9-1c-0.8-0.6-1.2-0.8-2-0.8c-0.1,0-0.3,0-0.5,0h0l0,0C243.2,212.6,242.8,213.2,242.9,213.2L242.9,213.2
		l0,0.1L242.9,213.2L242.9,213.2L242.9,213.2L242.9,213.2L242.9,213.2L242.9,213.2L242.9,213.2L242.9,213.2L242.9,213.2L242.9,213.2
		L242.9,213.2l0,0.1l0,0c0-0.1,0.4-0.6,1.5-0.7l0-0.1l0,0.1c0.2,0,0.3,0,0.5,0c0.8,0,1.1,0.2,1.9,0.8c0.8,0.7,1.5,1,2,1l0.1,0l0-0.1
		l0,0.1l0,0l0,0c0.1,0.1,0.1,0.2,0.3,0.4l0,0l0,0l0.1,0.2c0.1,0.1,0.2,0.1,0.4,0.1c0.1,0,0.2,0,0.2-0.1c0.1-0.1,0.2-0.2,0.2-0.3
		c0.1-0.1,0.1-0.2,0.2-0.3l0-0.1l0,0.1c0.2-0.2,0.6-0.2,0.9-0.3l0,0c0.6-0.1,0.8-0.1,1.3-0.2l0,0h0c0.1,0,0.2,0,0.3,0
		c0.2,0,0.5,0,0.8,0.1c0.3,0.1,0.5,0.2,0.7,0.4l0,0h0.1h0.1l0-0.1c-0.2-0.5-0.4-0.8-0.6-1l0,0l0,0c-0.4-0.4-1.3-0.8-2.3-1.1
		c-1-0.3-2.1-0.5-2.9-0.5l0,0l-0.1,0c-0.3,0-0.6,0.1-0.7,0.3c-0.1,0.1-0.1,0.3-0.1,0.4l0,0.1l0.1,0l0-0.1c-1-0.3-2-0.4-2.9-0.4
		c-0.7,0-1.2,0.1-1.6,0.3l0,0.1l0-0.1C243.1,212.5,242.9,212.8,242.9,213.2L242.9,213.2L242.9,213.2L242.9,213.2z"/>
	<circle id="XMLID_264_" class="st0" cx="249.5" cy="213.8" r="0.5"/>
</g>
</svg>
